<?xml version="1.0" encoding="UTF-8" standalone="no"?>
<svg
   xmlns:dc="http://purl.org/dc/elements/1.1/"
   xmlns:cc="http://creativecommons.org/ns#"
   xmlns:rdf="http://www.w3.org/1999/02/22-rdf-syntax-ns#"
   xmlns:svg="http://www.w3.org/2000/svg"
   xmlns="http://www.w3.org/2000/svg"
   viewBox="0 0 605.40533 251.14667"
   height="28"
   width="67"
   xml:space="preserve"
   id="svg2"
   version="1.1"><metadata
     id="metadata8"><rdf:RDF><cc:Work
         rdf:about=""><dc:format>image/svg+xml</dc:format><dc:type
           rdf:resource="http://purl.org/dc/dcmitype/StillImage" /></cc:Work></rdf:RDF></metadata><defs
     id="defs6"><clipPath
       id="clipPath18"
       clipPathUnits="userSpaceOnUse"><path
         id="path16"
         d="M 0,188.36 H 454.054 V 0 H 0 Z" /></clipPath></defs><g
     transform="matrix(1.3333333,0,0,-1.3333333,0,251.14667)"
     id="g10"><g
       id="g12"><g
         clip-path="url(#clipPath18)"
         id="g14"><g
           transform="translate(417.005,168.803)"
           id="g20"><path
             id="path22"
             style="fill:#000000;fill-opacity:1;fill-rule:nonzero;stroke:none"
             d="m 0,0 c 4.077,6.327 9.187,11.443 15.388,15.574 3.365,2.242 5.508,2.237 7.299,-1.858 2.856,-6.534 5.108,-13.063 3.061,-20.282 -0.74,-2.612 -0.202,-4.851 1.422,-7.026 1.892,-2.533 3.574,-5.224 5.324,-7.861 4.281,-6.452 6.023,-13.25 3.126,-20.828 -1.266,-3.312 -1.398,-6.751 -0.686,-10.316 0.651,-3.261 0.529,-6.633 -10e-4,-9.953 -0.868,-5.433 -3.678,-9.236 -9.154,-10.676 -4.311,-1.134 -8.055,-3.104 -10.865,-6.666 -0.73,-0.924 -1.659,-1.639 -2.896,-1.806 -3.995,-0.54 -14.155,8.473 -14.143,12.552 0.002,0.666 0.04,1.333 0.053,1.999 0.223,12.049 -0.498,13.217 -11.554,18.045 -2.325,1.016 -4.54,2.163 -6.132,4.165 -2.194,2.76 -4.861,2.506 -7.652,1.335 -2.825,-1.186 -4.693,-3.026 -4.317,-6.478 0.883,-8.118 1.223,-16.267 1.184,-24.435 -0.005,-0.951 0.259,-2.065 0.791,-2.831 10.487,-15.111 14.438,-32.883 19.668,-49.993 3.991,-13.057 11.505,-20.154 25.012,-21.108 2.149,-0.152 4.278,-0.653 6.405,-1.049 6.045,-1.123 9.666,-4.933 11.446,-10.616 2.216,-7.075 1.112,-8.581 -6.254,-8.63 -7.331,-0.05 -14.664,0.038 -21.994,-0.059 -2.965,-0.039 -5.488,0.539 -7.712,2.732 -3.261,3.215 -7.537,4.859 -11.641,6.678 -4.504,1.997 -8.689,4.509 -11.37,8.676 -3.752,5.83 -8.856,10.356 -13.633,15.217 -9.575,9.741 -19.488,19.147 -28.544,29.402 -6.519,7.381 -10.788,15.581 -10.705,25.617 0.026,3.152 -0.79,4.468 -4.025,2.881 -1.034,-0.506 -2.214,-0.983 -3.335,-1.002 -9.535,-0.152 -14.198,-5.844 -17.576,-14.058 -2.964,-7.209 -7.195,-13.892 -10.764,-20.86 -2.377,-4.639 -3.919,-9.538 -3.914,-14.834 0.007,-7.913 1.869,-10.754 9.33,-13.419 4.625,-1.65 9.074,-3.38 11.603,-8.02 2.858,-5.243 2.018,-6.859 -3.849,-6.918 -7.665,-0.077 -15.331,0.037 -22.994,-0.062 -2.981,-0.04 -4.987,0.993 -6.443,3.702 -1.89,3.514 -4.156,6.827 -6.253,10.231 -3.477,5.648 -4.889,11.419 -2.534,18.063 2.047,5.775 1.123,11.963 0.27,17.844 -1.27,8.759 0.113,16.581 5.844,23.429 1.869,2.232 2.112,3.463 -1.336,4.11 -14.006,2.631 -27.245,7.57 -40.059,13.717 -0.151,0.072 -0.303,0.141 -0.458,0.201 -10.817,4.155 -12.899,3.225 -15.937,-7.673 -2.639,-9.46 -5.386,-18.913 -7.445,-28.505 -2.276,-10.601 0.384,-20.845 3.79,-30.857 1.323,-3.887 5.283,-3.722 8.319,-4.614 6.649,-1.95 12.375,-4.763 15.279,-11.644 2.257,-5.347 1.964,-6.07 -3.69,-6.117 -5.832,-0.048 -11.685,0.288 -17.49,-0.099 -5.523,-0.37 -9.644,1.744 -14.149,4.754 -16.295,10.883 -20.921,27.131 -22.229,45.22 -0.812,11.231 -6.732,19.999 -13.919,28.124 -1.396,1.578 -2.665,2.229 -4.694,0.942 -7.095,-4.502 -15.086,-6.986 -22.871,-9.935 -16.371,-6.202 -30.572,-15.458 -41.313,-29.538 -3.907,-5.121 -6.6,-10.801 -7.554,-17.205 -0.902,-6.048 0.795,-8.601 6.639,-10.323 6.469,-1.907 9.033,-5.038 9.766,-11.568 0.31,-2.762 -0.69,-4.185 -3.469,-4.186 -9.163,-0.004 -18.327,0.025 -27.49,0.056 -2.028,0.007 -3.331,1.205 -4.54,2.695 -4.376,5.394 -6.429,11.642 -6.607,18.477 -0.304,11.699 1.07,23.271 3.132,34.761 1.273,7.092 4.617,12.91 11.359,16.09 20.017,9.439 30.478,27.13 39.915,45.775 1.903,3.76 0.218,4.329 -3.043,4.038 -9.794,-0.876 -18.185,-5.221 -26.025,-10.729 -10.11,-7.103 -19.21,-15.433 -28.225,-23.855 -9.871,-9.221 -21.08,-15.629 -34.916,-16.6 -23.371,-1.642 -35.117,11.859 -33.952,34.312 0.397,7.65 2.971,14.727 8.221,20.499 4.049,4.451 8.971,6.884 15.197,5.081 5.174,-1.497 6.506,-4.102 4.37,-8.944 -0.866,-1.966 -2.21,-3.716 -3.245,-5.614 -1.192,-2.186 -2.544,-4.334 -3.371,-6.66 -3.562,-10.023 1.241,-17.165 11.842,-18.066 11.247,-0.955 20.389,3.735 28.871,10.384 10.295,8.07 19.272,17.575 27.276,27.753 12.628,16.058 28.947,24.632 48.808,27.213 7.692,1 14.624,4.441 21.986,6.507 14.05,3.942 28.271,6.298 42.878,5.941 6.885,-0.168 13.249,0.928 19.822,3.607 16.51,6.729 33.778,6.703 51.099,3.218 13.55,-2.726 26.942,-6.122 40.383,-9.303 7.606,-1.8 15.939,-1.155 23.704,0.535 14.996,3.263 30.005,6.308 45.383,6.591 10.059,0.185 19.907,-1.457 29.175,-5.709 C 1.943,6.386 1.949,6.398 0,0" /></g></g></g></g></svg>