<?xml version="1.0" encoding="UTF-8" standalone="no"?>
<svg
   xmlns:dc="http://purl.org/dc/elements/1.1/"
   xmlns:cc="http://creativecommons.org/ns#"
   xmlns:rdf="http://www.w3.org/1999/02/22-rdf-syntax-ns#"
   xmlns:svg="http://www.w3.org/2000/svg"
   xmlns="http://www.w3.org/2000/svg"
   viewBox="0 0 490.13733 682.66669"
   height="49"
   width="35"
   xml:space="preserve"
   id="svg2"
   version="1.1"><metadata
     id="metadata8"><rdf:RDF><cc:Work
         rdf:about=""><dc:format>image/svg+xml</dc:format><dc:type
           rdf:resource="http://purl.org/dc/dcmitype/StillImage" /></cc:Work></rdf:RDF></metadata><defs
     id="defs6"><clipPath
       id="clipPath18"
       clipPathUnits="userSpaceOnUse"><path
         id="path16"
         d="M 0,512 H 367.603 V 0 H 0 Z" /></clipPath></defs><g
     transform="matrix(1.3333333,0,0,-1.3333333,0,682.66667)"
     id="g10"><g
       id="g12"><g
         clip-path="url(#clipPath18)"
         id="g14"><g
           transform="translate(79.5868,512)"
           id="g20"><path
             id="path22"
             style="fill:#000000;fill-opacity:1;fill-rule:nonzero;stroke:none"
             d="m 0,0 h 2 c 3.575,-1.857 5.713,-4.978 7.548,-8.416 3.078,-5.771 5.272,-11.898 6.915,-18.179 1.118,-4.273 3.43,-6.318 7.777,-7.072 12.275,-2.126 21.222,-9.128 27.467,-19.755 3.896,-6.629 6.925,-13.662 9.687,-20.823 7.497,-19.439 13.226,-39.483 20.215,-59.093 3.338,-9.365 3.475,-9.242 13.484,-9.339 11.895,-0.115 11.062,1.861 11.243,-11.328 0.058,-4.181 -1.26,-6.291 -5.672,-6.078 -1.367,0.065 -3.423,0.69 -3.939,-1.138 -0.429,-1.52 1.257,-2.576 2.266,-3.644 6.263,-6.63 14.106,-10.496 22.781,-12.841 9.965,-2.694 20.126,-4.799 29.887,-8.092 24.899,-8.401 47.985,-20.127 65.925,-39.976 10.952,-12.118 18.481,-26.483 24.884,-41.387 19.504,-45.409 28.638,-93.469 35.91,-141.982 3.405,-22.725 5.804,-45.578 7.661,-68.471 0.929,-11.435 2.13,-22.878 1.961,-34.386 H 113 c -0.617,2.436 0.389,4.612 1.216,6.762 3.562,9.257 10.867,14.082 20.096,16.217 3.645,0.845 4.11,1.943 1.844,4.829 -3.846,4.897 -6.374,10.535 -8.353,16.391 -8.575,25.368 -11.887,51.845 -16.024,78.114 -3.158,20.052 -7.872,39.457 -18.26,57.152 -7.68,13.082 -17.306,24.416 -29.381,33.632 -4.363,3.329 -4.501,3.33 -5.248,-2.323 -0.499,-3.783 -0.63,-7.619 -0.863,-11.435 -1.517,-24.955 -1.382,-49.899 0.906,-74.801 1.784,-19.418 2.492,-38.812 0.804,-58.292 C 57.792,-468.201 53.679,-490.231 48,-512 h -70 c 1.698,11.578 11.05,21.248 22.271,23.441 6.739,1.318 13.274,0.43 19.786,-1.067 3.141,-0.723 4.453,-0.156 4.718,3.427 2.079,28.071 0.659,55.973 -5.048,83.499 -6.594,31.803 -12.804,63.67 -16.099,95.98 -1.368,13.422 -5.43,25.474 -11.943,37.093 -6.269,11.185 -11.727,22.822 -17.882,34.073 -4.878,8.917 -5.806,17.929 -2.179,27.394 1.429,3.73 2.784,7.51 4.526,11.095 5.021,10.336 10.35,20.523 15.302,30.891 2.561,5.361 2.033,5.933 -3.725,6.057 -8.565,0.183 -8.567,0.183 -8.702,8.673 -0.019,1.166 0.029,2.333 0.006,3.499 -0.073,3.633 1.344,5.641 5.33,5.345 2.652,-0.196 5.33,-0.001 7.995,-0.05 3.634,-0.069 4.681,1.52 3.791,5.039 -3.043,12.035 -14.596,21.902 -26.973,23.414 -11.757,1.436 -23.252,-0.232 -34.721,-2.275 -3.408,-0.608 -5.285,0.138 -6.572,3.376 -2.09,5.261 -4.445,10.418 -6.766,15.584 -0.97,2.157 -1.047,4.05 0.488,6.043 16.688,21.67 34.874,41.698 59.711,54.397 2.606,1.332 4.051,3.033 4.662,5.941 1.576,7.497 3.417,14.938 6.657,21.947 C -5.665,-5.502 -3.704,-2.061 0,0" /></g></g></g></g></svg>