<svg xmlns="http://www.w3.org/2000/svg" viewBox="0 0 454.1 188.4"><path d="M449.5 41c-1.8-2.6-3.4-5.3-5.3-7.9-1.6-2.2-2.2-4.4-1.4-7 2-7.2-.2-13.7-3.1-20.3-1.8-4.1-3.9-4.1-7.3-1.9-6.2 4.1-11.3 9.2-15.4 15.6 1.9-6.4 1.9-6.4-4.5-9.4-9.3-4.3-19.1-5.9-29.2-5.7-15.4.3-30.4 3.3-45.4 6.6-7.8 1.7-16.1 2.3-23.7.5-13.4-3.2-26.8-6.6-40.4-9.3-17.3-3.5-34.6-3.5-51.1 3.2-6.6 2.7-12.9 3.8-19.8 3.6-14.6-.4-28.8 2-42.9 5.9-7.4 2.1-14.3 5.5-22 6.5-19.9 2.6-36.2 11.2-48.8 27.2-8 10.2-17 19.7-27.3 27.8C53.4 83 44.3 87.7 33 86.8c-10.6-.9-15.4-8-11.8-18.1.8-2.3 2.2-4.5 3.4-6.7 1-1.9 2.4-3.6 3.2-5.6 2.1-4.8.8-7.4-4.4-8.9-6.2-1.8-11.1.6-15.2 5.1C3 58.4.4 65.4 0 73.1c-1.2 22.5 10.6 36 34 34.3 13.8-1 25-7.4 34.9-16.6 9-8.4 18.1-16.8 28.2-23.9 7.8-5.5 16.2-9.9 26-10.7 3.3-.3 4.9.3 3 4-9.4 18.6-19.9 36.3-39.9 45.8-6.7 3.2-10.1 9-11.4 16.1-2.1 11.5-3.4 23.1-3.1 34.8.2 6.8 2.2 13.1 6.6 18.5 1.2 1.5 2.5 2.7 4.5 2.7 9.2 0 18.3.1 27.5.1 2.8 0 3.8-1.4 3.5-4.2-.7-6.5-3.3-9.7-9.8-11.6-5.8-1.7-7.5-4.3-6.6-10.3 1-6.4 3.6-12.1 7.6-17.2 10.7-14.1 24.9-23.3 41.3-29.5 7.8-2.9 15.8-5.4 22.9-9.9 2-1.3 3.3-.6 4.7.9 7.2 8.1 13.1 16.9 13.9 28.1 1.3 18.1 5.9 34.3 22.2 45.2 4.5 3 8.6 5.1 14.1 4.8 5.8-.4 11.7-.1 17.5-.1 5.7 0 5.9-.8 3.7-6.1-2.9-6.9-8.6-9.7-15.3-11.6-3-.9-7-.7-8.3-4.6-3.4-10-6.1-20.3-3.8-30.9 2.1-9.6 4.8-19 7.4-28.5 3-10.9 5.1-11.8 15.9-7.7.2.1.3.1.5.2 12.8 6.1 26.1 11.1 40.1 13.7 3.4.6 3.2 1.9 1.3 4.1-5.7 6.8-7.1 14.7-5.8 23.4.9 5.9 1.8 12.1-.3 17.8-2.4 6.6-.9 12.4 2.5 18.1 2.1 3.4 4.4 6.7 6.3 10.2 1.5 2.7 3.5 3.7 6.4 3.7 7.7-.1 15.3 0 23-.1 5.9-.1 6.7-1.7 3.8-6.9-2.5-4.6-7-6.4-11.6-8-7.5-2.7-9.3-5.5-9.3-13.4 0-5.3 1.5-10.2 3.9-14.8 3.6-7 7.8-13.7 10.8-20.9 3.4-8.2 8-13.9 17.6-14.1 1.1 0 2.3-.5 3.3-1 3.2-1.6 4.1-.3 4 2.9-.1 10 4.2 18.2 10.7 25.6 9.1 10.3 19 19.7 28.5 29.4 4.8 4.9 9.9 9.4 13.6 15.2 2.7 4.2 6.9 6.7 11.4 8.7 4.1 1.8 8.4 3.5 11.6 6.7 2.2 2.2 4.7 2.8 7.7 2.7 7.3-.1 14.7 0 22-.1 7.4 0 8.5-1.6 6.3-8.6-1.8-5.7-5.4-9.5-11.4-10.6-2.1-.4-4.3-.9-6.4-1-13.5-1-21-8.1-25-21.1-5.2-17.1-9.2-34.9-19.7-50-.5-.8-.8-1.9-.8-2.8 0-8.2-.3-16.3-1.2-24.4-.4-3.5 1.5-5.3 4.3-6.5 2.8-1.2 5.5-1.4 7.7 1.3 1.6 2 3.8 3.1 6.1 4.2 11.1 4.8 11.8 6 11.6 18 0 .7-.1 1.3-.1 2 0 4.1 10.1 13.1 14.1 12.6 1.2-.2 2.2-.9 2.9-1.8 2.8-3.6 6.6-5.5 10.9-6.7 5.5-1.4 8.3-5.2 9.2-10.7.5-3.3.7-6.7 0-10-.7-3.6-.6-7 .7-10.3 3.1-7.4 1.4-14.2-2.9-20.7z"/></svg>