<?xml version="1.0" encoding="UTF-8" standalone="no"?>
<svg
   xmlns:dc="http://purl.org/dc/elements/1.1/"
   xmlns:cc="http://creativecommons.org/ns#"
   xmlns:rdf="http://www.w3.org/1999/02/22-rdf-syntax-ns#"
   xmlns:svg="http://www.w3.org/2000/svg"
   xmlns="http://www.w3.org/2000/svg"
   viewBox="0 0 13.333333 25.333332"
   height="25.333332"
   width="13.333333"
   xml:space="preserve"
   id="svg2"
   version="1.1"><metadata
     id="metadata8"><rdf:RDF><cc:Work
         rdf:about=""><dc:format>image/svg+xml</dc:format><dc:type
           rdf:resource="http://purl.org/dc/dcmitype/StillImage" /></cc:Work></rdf:RDF></metadata><defs
     id="defs6"><clipPath
       id="clipPath18"
       clipPathUnits="userSpaceOnUse"><path
         id="path16"
         d="M 0,19 H 10 V 0 H 0 Z" /></clipPath></defs><g
     transform="matrix(1.3333333,0,0,-1.3333333,0,25.333333)"
     id="g10"><g
       id="g12"><g
         clip-path="url(#clipPath18)"
         id="g14"><g
           transform="translate(3.118,1.027)"
           id="g20"><path
             id="path22"
             style="fill:#000000;fill-opacity:1;fill-rule:nonzero;stroke:none"
             d="M 0,0 H 2.823 V 8.835 H 5.75 v 2.311 H 2.826 l -0.012,0.502 c -0.032,1.397 10e-4,2.591 0.745,3.054 l 0.14,0.087 h 2.072 v 2.157 H 3.376 C 2.224,16.884 1.37,16.548 0.797,15.921 0.027,15.079 -0.246,13.664 -0.016,11.715 l 0.069,-0.57 H -2.008 V 8.834 H 0 Z m 3.933,-1.027 h -5.042 v 8.836 h -2.009 v 4.364 h 1.945 c -0.15,1.976 0.22,3.423 1.124,4.412 0.768,0.842 1.91,1.309 3.394,1.387 l 3.537,10e-4 V 13.762 H 4.104 C 3.981,13.546 3.919,13.014 3.918,12.173 H 6.86 V 7.808 H 3.933 Z" /></g></g></g></g></svg>