<?xml version="1.0" encoding="UTF-8" standalone="no"?>
<svg
   xmlns:dc="http://purl.org/dc/elements/1.1/"
   xmlns:cc="http://creativecommons.org/ns#"
   xmlns:rdf="http://www.w3.org/1999/02/22-rdf-syntax-ns#"
   xmlns:svg="http://www.w3.org/2000/svg"
   xmlns="http://www.w3.org/2000/svg"
   viewBox="0 0 21.333332 21.345333"
   height="21.345333"
   width="21.333332"
   xml:space="preserve"
   id="svg2"
   version="1.1"><metadata
     id="metadata8"><rdf:RDF><cc:Work
         rdf:about=""><dc:format>image/svg+xml</dc:format><dc:type
           rdf:resource="http://purl.org/dc/dcmitype/StillImage" /></cc:Work></rdf:RDF></metadata><defs
     id="defs6"><clipPath
       id="clipPath18"
       clipPathUnits="userSpaceOnUse"><path
         id="path16"
         d="M 0,16.009 H 16 V 0 H 0 Z" /></clipPath></defs><g
     transform="matrix(1.3333333,0,0,-1.3333333,0,21.345333)"
     id="g10"><g
       id="g12"><g
         clip-path="url(#clipPath18)"
         id="g14"><g
           transform="translate(11.8252,16.0092)"
           id="g20"><path
             id="path22"
             style="fill:#231f20;fill-opacity:1;fill-rule:nonzero;stroke:none"
             d="m 0,0 h -7.651 c -2.297,0 -4.174,-1.879 -4.174,-4.176 v -7.657 c 0,-2.296 1.877,-4.176 4.174,-4.176 h 7.653 c 2.294,0 4.173,1.88 4.173,4.177 v 7.656 C 4.175,-1.879 2.296,0 0,0 m 0,-1.043 c 1.727,0 3.131,-1.407 3.131,-3.133 v -7.657 c 0,-1.727 -1.404,-3.132 -3.131,-3.132 h -7.651 c -1.726,0 -3.131,1.405 -3.131,3.132 v 7.657 c 0,1.726 1.405,3.132 3.131,3.132 H 0" /></g><g
           transform="translate(7.9995,12.1264)"
           id="g24"><path
             id="path26"
             style="fill:#231f20;fill-opacity:1;fill-rule:nonzero;stroke:none"
             d="m 0,0 c -2.278,0 -4.126,-1.847 -4.126,-4.126 0,-2.279 1.847,-4.125 4.126,-4.125 2.279,0 4.125,1.846 4.125,4.125 C 4.125,-1.847 2.279,0 0,0 m 0,-1.044 c 1.699,0 3.083,-1.382 3.083,-3.082 0,-1.698 -1.384,-3.083 -3.083,-3.083 -1.7,0 -3.082,1.384 -3.082,3.083 0,1.7 1.382,3.082 3.082,3.082" /></g><g
           transform="translate(12.2734,13.1986)"
           id="g28"><path
             id="path30"
             style="fill:#231f20;fill-opacity:1;fill-rule:nonzero;stroke:none"
             d="m 0,0 c 0.516,0 0.934,-0.418 0.934,-0.934 0,-0.515 -0.418,-0.933 -0.934,-0.933 -0.516,0 -0.934,0.418 -0.934,0.933 C -0.934,-0.418 -0.516,0 0,0" /></g></g></g></g></svg>