<?xml version="1.0" encoding="UTF-8" standalone="no"?>
<svg
   xmlns:dc="http://purl.org/dc/elements/1.1/"
   xmlns:cc="http://creativecommons.org/ns#"
   xmlns:rdf="http://www.w3.org/1999/02/22-rdf-syntax-ns#"
   xmlns:svg="http://www.w3.org/2000/svg"
   xmlns="http://www.w3.org/2000/svg"
   viewBox="0 0 229.68533 76.093735"
   height="76.093735"
   width="229.68533"
   xml:space="preserve"
   id="svg2"
   version="1.1"><metadata
     id="metadata8"><rdf:RDF><cc:Work
         rdf:about=""><dc:format>image/svg+xml</dc:format><dc:type
           rdf:resource="http://purl.org/dc/dcmitype/StillImage" /></cc:Work></rdf:RDF></metadata><defs
     id="defs6"><clipPath
       id="clipPath18"
       clipPathUnits="userSpaceOnUse"><path
         id="path16"
         d="M 0,57.07 H 172.264 V 0 H 0 Z" /></clipPath></defs><g
     transform="matrix(1.3333333,0,0,-1.3333333,0,76.093733)"
     id="g10"><g
       id="g12"><g
         clip-path="url(#clipPath18)"
         id="g14"><g
           transform="translate(58.1528,31.5624)"
           id="g20"><path
             id="path22"
             style="fill:#fdc305;fill-opacity:1;fill-rule:nonzero;stroke:none"
             d="m 0,0 c -0.432,-0.432 -1.344,-0.72 -1.488,0.576 -0.143,1.295 -0.192,2.207 -0.192,2.207 0,0 -1.919,3.406 -2.638,3.454 -0.72,0.048 -5.806,-3.454 -7.15,-4.942 -1.159,-1.283 -1.391,-1.199 -1.391,-3.454 0,-1.706 0.219,-8.132 0.098,-13.051 0,0 -2.161,-0.576 -8.111,-2.159 -5.949,-1.584 -7.773,-1.776 -7.773,-1.776 l -1.007,5.806 c 0,0 -10e-4,0 -0.003,0.001 -0.005,10e-4 -0.018,0.003 -0.039,0.006 -0.001,0 -0.002,0 -0.002,0 -0.011,0.002 -0.022,0.004 -0.035,0.005 -0.015,0.002 -0.031,0.005 -0.049,0.007 v 0 l -2.559,13.128 c 0,0 -3.791,1.44 -5.182,1.823 -1.392,0.384 -2.255,0.672 -4.03,-0.624 -1.776,-1.295 -1.728,-3.838 -1.728,-3.838 0,0 0.432,-0.96 0.48,-1.44 0.048,-0.479 -1.2,-0.431 -2.015,-0.431 -0.816,0 -0.912,1.439 -0.288,3.119 0.623,1.679 1.919,3.694 1.919,3.694 0,0 1.2,2.255 2.063,2.879 0,0 0.144,0.336 1.248,0.24 1.103,-0.096 7.245,-0.432 7.245,-0.432 l 0.053,2.265 c 6.663,0.908 13.431,1.368 20.157,1.33 -0.011,-0.605 -0.029,-1.212 -0.058,-1.82 0,0 4.366,2.015 8.109,1.968 0,0 0.431,0.047 0.767,-0.384 C -3.263,7.725 -1.2,5.182 -0.96,4.798 -0.72,4.414 0.24,3.071 0.863,1.775 0.863,1.775 0.432,0.432 0,0 M 1.472,3.769 C -3.957,16.762 -18.89,22.895 -31.883,17.466 -44.876,12.039 -51.008,-2.895 -45.58,-15.888 c 3.57,-8.547 11.254,-14.125 19.793,-15.397 -0.577,2.081 -1.157,4.382 -1.684,6.826 1.492,-0.988 3.075,-1.797 4.748,-2.544 -0.006,-0.003 -0.013,-0.007 -0.02,-0.01 0,0 0.118,-2.147 0.278,-4.546 1.766,-0.029 3.549,0.126 5.324,0.476 -0.042,0.157 -0.043,0.403 0.012,0.759 0.285,1.854 1.087,5.213 1.243,7.375 1.123,1.059 2.128,2.316 2.887,3.697 -10e-4,-0.012 -0.002,-0.024 -0.004,-0.037 -0.018,-0.143 -0.036,-0.287 -0.054,-0.431 -0.552,-4.246 -1.697,-8.775 -2.393,-10.028 -0.242,-0.436 -0.544,-0.855 -0.826,-1.148 1.362,0.318 2.716,0.753 4.05,1.311 C 0.767,-24.157 6.9,-9.224 1.472,3.769" /></g><g
           transform="translate(56.2104,37.643)"
           id="g24"><path
             id="path26"
             style="fill:#f06351;fill-opacity:1;fill-rule:nonzero;stroke:none"
             d="m 0,0 c 0.472,-0.595 0.883,-1.124 0.982,-1.283 0.241,-0.384 1.2,-1.727 1.824,-3.023 0,0 -0.432,-1.343 -0.864,-1.775 C 1.51,-6.513 0.599,-6.8 0.455,-5.505 c -0.144,1.296 -0.192,2.207 -0.192,2.207 0,0 -1.919,3.407 -2.639,3.455 -0.72,0.048 -5.806,-3.455 -7.149,-4.942 -1.16,-1.284 -1.392,-1.2 -1.392,-3.455 0,-1.495 0.169,-6.621 0.129,-11.177 1.801,-0.208 4.447,-0.707 5.245,-1.874 0,0 -0.288,7.149 7.773,3.407 0,0 0.288,9.74 11.419,7.245 0,0 -5.643,6.929 -13.649,10.639" /></g><g
           transform="translate(45.7353,39.9555)"
           id="g28"><path
             id="path30"
             style="fill:#f06351;fill-opacity:1;fill-rule:nonzero;stroke:none"
             d="m 0,0 c 0.145,8.477 -1.401,16.461 -1.401,16.461 0,0 -0.144,1.295 -0.864,0.24 -0.719,-1.056 -1.199,-3.935 -1.199,-3.935 -7.437,0.432 -12.763,-0.335 -12.763,-0.335 -0.816,2.735 -2.207,3.934 -2.879,3.646 -0.672,-0.288 -0.72,-3.311 -0.72,-3.311 L -20.156,-1.33 C -13.493,-0.422 -6.725,0.038 0,0" /></g><g
           transform="translate(45.1538,12.31)"
           id="g32"><path
             id="path34"
             style="fill:#e55645;fill-opacity:1;fill-rule:nonzero;stroke:none"
             d="m 0,0 c 0.126,1.061 0.2,2.475 0.238,4.042 0,0 -2.161,-0.575 -8.111,-2.159 -5.949,-1.583 -7.773,-1.775 -7.773,-1.775 l 1.104,-4.99 c 0.023,-0.109 0.046,-0.217 0.07,-0.325 1.492,-0.987 3.075,-1.797 4.748,-2.544 4.354,2.155 6.841,4.117 6.841,4.117 C -2.884,-3.655 -2.886,-3.676 -2.887,-3.696 -1.764,-2.637 -0.759,-1.381 0,0" /></g><g
           transform="translate(31.8594,43.0776)"
           id="g36"><path
             id="path38"
             style="fill:#000000;fill-opacity:1;fill-rule:nonzero;stroke:none"
             d="m 0,0 c -0.046,0.091 1.021,-0.68 1.405,-0.92 0.384,-0.24 0.61,-0.423 0.61,-0.591 0,-0.168 -0.264,-0.336 -0.624,-0.336 -0.36,0 -0.912,0.12 -0.959,0.264 0,0 0.599,0.024 0.935,0.024 h 0.288 c 0,0 -1.391,1.031 -1.655,1.559" /></g><g
           transform="translate(39.3291,42.9643)"
           id="g40"><path
             id="path42"
             style="fill:#000000;fill-opacity:1;fill-rule:nonzero;stroke:none"
             d="m 0,0 c 0,0 -1.046,-1.273 -1.085,-1.332 -0.04,-0.059 -0.166,-0.341 0.185,-0.293 0.35,0.049 1.11,0.225 1.217,0.283 0.108,0.059 0.07,0.196 -0.116,0.175 -0.205,-0.021 -0.682,-0.048 -0.985,-0.106 l 0.841,1.26 c 0,0 0.026,0.118 -0.057,0.013" /></g><g
           transform="translate(36.1982,36.8764)"
           id="g44"><path
             id="path46"
             style="fill:#000000;fill-opacity:1;fill-rule:nonzero;stroke:none"
             d="M 0,0 C 0,0 0.81,0.351 1.089,1.007 1.368,1.664 1.125,1.919 0.648,1.985 0.171,2.051 -0.692,2.015 -1.088,1.646 -1.484,1.277 -1.43,0.917 -1.142,0.692 -0.854,0.468 -0.297,0.09 0,0" /></g><g
           transform="translate(35.7934,35.6254)"
           id="g48"><path
             id="path50"
             style="fill:#f06351;fill-opacity:1;fill-rule:nonzero;stroke:none"
             d="m 0,0 c 0,0 -0.179,-0.372 -0.458,-0.594 -0.243,-0.193 -0.567,-0.363 -1.017,-0.386 -0.638,-0.033 -1.055,0.169 -1.451,0.445 -0.203,0.141 -0.395,0.254 -0.532,0.442 -0.157,0.181 -0.356,0.252 -0.356,0.252 0,0 0.747,-4.097 2.564,-4.745 1.817,-0.647 2.143,0.749 2.2,1.133 0.048,0.326 0,2.081 -0.82,3.222 C 0.115,0.072 0.099,-0.131 0,0" /></g><g
           transform="translate(34.1533,34.4931)"
           id="g52"><path
             id="path54"
             style="fill:#000000;fill-opacity:1;fill-rule:nonzero;stroke:none"
             d="m 0,0 h -0.016 c -1.292,0.011 -2.29,1.36 -2.332,1.418 -0.047,0.064 -0.032,0.154 0.032,0.201 0.064,0.047 0.154,0.032 0.201,-0.032 0.01,-0.013 0.956,-1.29 2.103,-1.299 H 0 c 0.584,0 1.131,0.333 1.627,0.989 L 1.769,1.466 1.872,1.253 C 1.875,1.246 2.244,0.498 2.859,0.459 3.356,0.428 3.912,0.87 4.475,1.737 4.518,1.803 4.607,1.822 4.674,1.779 4.741,1.736 4.759,1.646 4.716,1.58 4.083,0.606 3.452,0.133 2.84,0.172 2.277,0.208 1.898,0.667 1.723,0.936 1.204,0.314 0.625,0 0,0" /></g><g
           transform="translate(33.6982,24.0488)"
           id="g56"><path
             id="path58"
             style="fill:#111111;fill-opacity:1;fill-rule:nonzero;stroke:none"
             d="M 0,0 4.113,5.385 3.31,1.383 5.268,2.201 1.155,-3.184 1.958,0.818 Z m 7.356,3.807 -3.12,-1.304 1.145,5.612 -7.469,-9.72 3.12,1.303 -1.145,-5.612 z" /></g><g
           transform="translate(45.6777,38.1542)"
           id="g60"><path
             id="path62"
             style="fill:#f06351;fill-opacity:1;fill-rule:nonzero;stroke:none"
             d="m 0,0 c 0,0 -2.543,-2.244 -5.062,-5.189 -2.519,-2.945 -5.29,-4.874 -5.29,-4.874 -0.216,0.526 -1.619,1.508 -1.619,1.508 0,0 -3.131,2.138 -5.182,3.822 -1.179,0.967 -2.346,2.165 -3.125,3.01 -0.292,0.015 -1.065,0.057 -2.005,0.109 4.69,-6.968 11.967,-8.8 11.967,-8.8 0.864,0.141 3.275,1.859 5.074,3.261 1.799,1.403 4.75,4.523 5.938,5.891 0.6,0.692 0.943,1.419 1.135,1.969 C 0.722,0.325 0,0 0,0" /></g><g
           transform="translate(25.8135,31.3705)"
           id="g64"><path
             id="path66"
             style="fill:#f06351;fill-opacity:1;fill-rule:nonzero;stroke:none"
             d="m 0,0 c 0,0 -3.791,1.439 -5.182,1.823 -1.391,0.384 -2.255,0.672 -4.03,-0.624 -1.775,-1.295 -1.727,-3.838 -1.727,-3.838 0,0 0.431,-0.96 0.48,-1.44 0.047,-0.479 -1.2,-0.431 -2.016,-0.431 -0.816,0 -0.911,1.439 -0.288,3.118 0.624,1.68 1.92,3.695 1.92,3.695 -5.422,-2.831 -14.97,-9.356 -14.97,-9.356 0,0 2.926,0.287 8.156,-0.24 5.23,-0.528 4.942,-4.654 4.942,-4.654 0,0 3.503,0.959 5.614,1.103 2.111,0.144 2.255,-2.111 2.255,-2.111 l 0.528,-3.838 c 0,0 0.48,0.623 2.639,2.351 1.853,1.483 3.868,1.356 4.366,1.295 z" /></g><g
           transform="translate(89.5586,19.9496)"
           id="g68"><path
             id="path70"
             style="fill:#111111;fill-opacity:1;fill-rule:nonzero;stroke:none"
             d="m 0,0 c -0.663,0.853 -0.994,2.082 -0.994,3.69 v 5.337 c 0,1.644 0.328,2.886 0.985,3.726 0.656,0.841 1.782,1.261 3.377,1.261 1.521,0 2.597,-0.371 3.23,-1.113 0.631,-0.742 0.947,-1.807 0.947,-3.193 V 8.457 H 4.601 v 1.379 c 0,0.442 -0.022,0.798 -0.064,1.068 -0.044,0.27 -0.154,0.493 -0.332,0.672 -0.178,0.177 -0.451,0.267 -0.819,0.267 -0.552,0 -0.908,-0.178 -1.067,-0.534 C 2.159,10.953 2.08,10.432 2.08,9.744 V 2.972 c 0,-0.7 0.092,-1.221 0.276,-1.564 0.184,-0.344 0.527,-0.516 1.03,-0.516 0.516,0 0.847,0.175 0.994,0.525 0.147,0.35 0.221,0.868 0.221,1.555 V 4.426 H 7.545 V 3.193 C 7.545,1.77 7.232,0.668 6.607,-0.111 5.981,-0.89 4.901,-1.279 3.368,-1.279 1.785,-1.279 0.663,-0.853 0,0" /></g><g
           transform="translate(103.7109,24.0258)"
           id="g72"><path
             id="path74"
             style="fill:#111111;fill-opacity:1;fill-rule:nonzero;stroke:none"
             d="M 0,0 -0.902,6 -1.785,0 Z M -2.595,9.754 H 0.773 L 3.644,-5.153 H 0.847 l -0.553,3.276 h -2.355 l -0.57,-3.276 h -2.853 z" /></g><g
           transform="translate(109.5083,31.5346)"
           id="g76"><path
             id="path78"
             style="fill:#111111;fill-opacity:1;fill-rule:nonzero;stroke:none"
             d="M 0,0 H -2.301 V 2.245 H 5.318 V 0 H 3.055 V -12.662 H 0 Z" /></g><g
           transform="translate(120.8076,33.7797)"
           id="g80"><path
             id="path82"
             style="fill:#444444;fill-opacity:1;fill-rule:nonzero;stroke:none"
             d="M 0,0 H 5.778 V -1.546 H 2.079 v -4.932 h 3 V -7.95 h -3 v -5.466 h 3.736 v -1.491 H 0 Z" /></g><g
           transform="translate(128.2983,33.7797)"
           id="g84"><path
             id="path86"
             style="fill:#444444;fill-opacity:1;fill-rule:nonzero;stroke:none"
             d="M 0,0 H 1.417 L 5.649,-9.901 V 0 h 1.73 V -14.907 H 6.054 L 1.766,-4.729 V -14.907 H 0 Z" /></g><g
           transform="translate(138.0146,33.7797)"
           id="g88"><path
             id="path90"
             style="fill:#444444;fill-opacity:1;fill-rule:nonzero;stroke:none"
             d="m 0,0 h 5.779 v -1.546 h -3.7 v -4.932 h 3 V -7.95 h -3 v -5.466 h 3.736 v -1.491 H 0 Z" /></g><g
           transform="translate(148.376,27.3569)"
           id="g92"><path
             id="path94"
             style="fill:#444444;fill-opacity:1;fill-rule:nonzero;stroke:none"
             d="m 0,0 c 0.896,0 1.537,0.178 1.923,0.534 0.386,0.356 0.58,1 0.58,1.932 C 2.503,3.08 2.435,3.561 2.3,3.911 2.165,4.261 1.925,4.519 1.583,4.684 1.239,4.849 0.754,4.932 0.129,4.932 H -0.792 V 0 Z m -2.871,6.423 h 3 c 1.509,0 2.616,-0.31 3.322,-0.929 0.705,-0.62 1.058,-1.629 1.058,-3.028 0,-1.914 -0.613,-3.073 -1.841,-3.478 L 4.785,-8.484 H 2.778 l -1.95,6.993 h -1.62 v -6.993 h -2.079 z" /></g><g
           transform="translate(155.6821,19.9682)"
           id="g96"><path
             id="path98"
             style="fill:#444444;fill-opacity:1;fill-rule:nonzero;stroke:none"
             d="m 0,0 c -0.601,0.853 -0.902,2.119 -0.902,3.8 v 4.987 c 0,1.153 0.12,2.102 0.359,2.844 0.24,0.742 0.65,1.312 1.233,1.711 0.582,0.399 1.384,0.598 2.402,0.598 1.374,0 2.365,-0.349 2.972,-1.048 0.608,-0.7 0.911,-1.798 0.911,-3.295 V 9.045 H 5.024 v 0.46 c 0,0.711 -0.043,1.261 -0.128,1.647 C 4.81,11.539 4.629,11.83 4.353,12.026 4.077,12.222 3.668,12.321 3.129,12.321 2.552,12.321 2.123,12.189 1.841,11.925 1.559,11.662 1.377,11.309 1.298,10.867 1.217,10.426 1.178,9.836 1.178,9.1 V 3.579 c 0,-1.141 0.138,-1.96 0.414,-2.457 0.277,-0.497 0.807,-0.745 1.592,-0.745 0.773,0 1.304,0.269 1.592,0.81 0.288,0.54 0.432,1.405 0.432,2.594 V 4.812 H 3.313 V 6.284 H 7.085 V -1.095 H 5.779 L 5.577,0.616 C 5.111,-0.647 4.227,-1.279 2.926,-1.279 1.577,-1.279 0.602,-0.854 0,0" /></g><g
           transform="translate(167.0737,24.1362)"
           id="g100"><path
             id="path102"
             style="fill:#444444;fill-opacity:1;fill-rule:nonzero;stroke:none"
             d="m 0,0 -3.22,9.644 h 1.932 L 0.994,2.448 3.24,9.644 H 5.19 L 1.988,0 V -5.263 H 0 Z" /></g></g></g></g></svg>