<?xml version="1.0" encoding="UTF-8" standalone="no"?>
<svg
   xmlns:dc="http://purl.org/dc/elements/1.1/"
   xmlns:cc="http://creativecommons.org/ns#"
   xmlns:rdf="http://www.w3.org/1999/02/22-rdf-syntax-ns#"
   xmlns:svg="http://www.w3.org/2000/svg"
   xmlns="http://www.w3.org/2000/svg"
   viewBox="0 0 134.00133 24.114401"
   height="24.114401"
   width="134.00133"
   xml:space="preserve"
   id="svg2"
   version="1.1"><metadata
     id="metadata8"><rdf:RDF><cc:Work
         rdf:about=""><dc:format>image/svg+xml</dc:format><dc:type
           rdf:resource="http://purl.org/dc/dcmitype/StillImage" /></cc:Work></rdf:RDF></metadata><defs
     id="defs6"><clipPath
       id="clipPath18"
       clipPathUnits="userSpaceOnUse"><path
         id="path16"
         d="M 0,18.086 H 100.501 V 0 H 0 Z" /></clipPath></defs><g
     transform="matrix(1.3333333,0,0,-1.3333333,0,24.1144)"
     id="g10"><g
       id="g12"><g
         clip-path="url(#clipPath18)"
         id="g14"><g
           transform="translate(1.2235,1.5097)"
           id="g20"><path
             id="path22"
             style="fill:#111111;fill-opacity:1;fill-rule:nonzero;stroke:none"
             d="m 0,0 c -0.815,1.005 -1.224,2.456 -1.224,4.353 v 6.339 c 0,1.94 0.405,3.405 1.214,4.397 0.808,0.99 2.189,1.487 4.145,1.487 1.866,0 3.189,-0.442 3.969,-1.325 0.778,-0.883 1.168,-2.134 1.168,-3.755 V 9.976 H 5.414 v 1.758 c 0,0.68 -0.074,1.202 -0.221,1.563 -0.148,0.362 -0.5,0.543 -1.058,0.543 -0.559,0 -0.927,-0.192 -1.103,-0.575 C 2.856,12.882 2.768,12.349 2.768,11.669 V 3.396 C 2.768,2.703 2.859,2.17 3.043,1.801 3.227,1.432 3.59,1.247 4.135,1.247 c 0.543,0 0.892,0.185 1.047,0.554 0.154,0.369 0.232,0.902 0.232,1.595 V 5.242 H 9.272 V 3.723 C 9.272,2.073 8.882,0.788 8.104,-0.131 7.324,-1.051 6.001,-1.51 4.135,-1.51 2.194,-1.51 0.816,-1.007 0,0" /></g><g
           transform="translate(18.4144,6.2968)"
           id="g24"><path
             id="path26"
             style="fill:#111111;fill-opacity:1;fill-rule:nonzero;stroke:none"
             d="M 0,0 -0.947,6.86 -1.896,0 Z M -3.218,11.55 H 1.278 L 4.609,-6.036 H 0.971 l -0.596,3.712 h -2.623 l -0.618,-3.712 h -3.726 z" /></g><g
           transform="translate(25.7513,14.9589)"
           id="g28"><path
             id="path30"
             style="fill:#111111;fill-opacity:1;fill-rule:nonzero;stroke:none"
             d="M 0,0 H -2.69 V 2.888 H 6.637 V 0 H 3.969 V -14.698 H 0 Z" /></g><g
           transform="translate(39.5316,17.8466)"
           id="g32"><path
             id="path34"
             style="fill:#111111;fill-opacity:1;fill-rule:nonzero;stroke:none"
             d="M 0,0 H 6.924 V -1.824 H 2.491 V -7.643 H 6.085 V -9.38 H 2.491 v -6.448 h 4.477 v -1.758 H 0 Z" /></g><g
           transform="translate(48.4886,17.8466)"
           id="g36"><path
             id="path38"
             style="fill:#111111;fill-opacity:1;fill-rule:nonzero;stroke:none"
             d="M 0,0 H 1.697 L 6.77,-11.681 V 0 H 8.842 V -17.586 H 7.254 L 2.116,-5.579 V -17.586 H 0 Z" /></g><g
           transform="translate(59.8119,17.8466)"
           id="g40"><path
             id="path42"
             style="fill:#111111;fill-opacity:1;fill-rule:nonzero;stroke:none"
             d="M 0,0 H 6.924 V -1.824 H 2.491 V -7.643 H 6.085 V -9.38 H 2.491 v -6.448 h 4.477 v -1.758 H 0 Z" /></g><g
           transform="translate(72.2074,10.2695)"
           id="g44"><path
             id="path46"
             style="fill:#111111;fill-opacity:1;fill-rule:nonzero;stroke:none"
             d="M 0,0 C 1.073,0 1.842,0.21 2.305,0.63 2.769,1.05 2.999,1.809 2.999,2.909 2.999,3.633 2.918,4.201 2.756,4.613 2.595,5.025 2.309,5.33 1.897,5.525 1.485,5.721 0.904,5.818 0.154,5.818 H -0.947 V 0 Z M -3.438,7.577 H 0.154 C 1.963,7.577 3.29,7.212 4.135,6.481 4.979,5.75 5.403,4.56 5.403,2.909 5.403,0.65 4.667,-0.716 3.197,-1.194 l 2.535,-8.815 H 3.33 l -2.337,8.251 h -1.94 v -8.251 h -2.491 z" /></g><g
           transform="translate(80.8119,1.5527)"
           id="g48"><path
             id="path50"
             style="fill:#111111;fill-opacity:1;fill-rule:nonzero;stroke:none"
             d="m 0,0 c -0.721,1.006 -1.081,2.499 -1.081,4.483 v 5.883 c 0,1.361 0.144,2.479 0.431,3.356 0.286,0.875 0.779,1.548 1.477,2.018 0.697,0.47 1.656,0.705 2.877,0.705 1.647,0 2.833,-0.412 3.562,-1.237 0.726,-0.824 1.09,-2.12 1.09,-3.886 V 10.671 H 6.02 v 0.542 c 0,0.84 -0.053,1.487 -0.155,1.944 -0.103,0.455 -0.32,0.799 -0.651,1.031 C 4.883,14.42 4.395,14.535 3.748,14.535 3.057,14.535 2.543,14.38 2.204,14.068 1.866,13.757 1.649,13.342 1.554,12.82 1.459,12.3 1.41,11.604 1.41,10.735 V 4.223 C 1.41,2.876 1.576,1.91 1.906,1.324 2.237,0.738 2.874,0.445 3.814,0.445 4.74,0.445 5.376,0.764 5.722,1.4 6.066,2.036 6.24,3.058 6.24,4.461 V 5.677 H 3.969 V 7.414 H 8.488 V -1.292 H 6.924 L 6.681,0.727 C 6.121,-0.764 5.063,-1.51 3.506,-1.51 1.889,-1.51 0.72,-1.006 0,0" /></g><g
           transform="translate(94.2816,6.4697)"
           id="g52"><path
             id="path54"
             style="fill:#111111;fill-opacity:1;fill-rule:nonzero;stroke:none"
             d="m 0,0 -3.857,11.377 h 2.315 L 1.191,2.888 3.882,11.377 H 6.219 L 2.383,0 V -6.209 H 0 Z" /></g></g></g></g></svg>