<svg xmlns="http://www.w3.org/2000/svg" viewBox="0 0 127.8 23.4"><path d="M6.8 0C4.3 0 2.6.6 1.5 1.9.5 3.2 0 5.1 0 7.6v8.3c0 2.4.6 4.3 1.6 5.6 1 1.3 2.8 1.9 5.2 2 2.4 0 4.1-.6 5.1-1.8s1.5-2.9 1.5-5v-2H8.5v2.4c0 .9-.1 1.6-.3 2.1s-.6.7-1.3.7c-.7 0-1.2-.2-1.4-.7-.3-.5-.4-1.2-.4-2.1V6.4c0-.9.1-1.7.3-2.2.2-.5.7-.7 1.4-.7.8 0 1.2.4 1.4.8.2.4.3 1.1.3 2v2.3h4.9v-2c0-2.1-.5-3.8-1.5-4.9C10.9.6 9.2 0 6.8 0zm12.5.3L15 23.1h4.7l.8-4.8h3.3l.8 4.8h4.6L25 .3h-5.7zm1.7 15l1.2-8.9 1.2 8.9H21zm8.3-11.2h3.4v19h5.1V4h3.4V.3H29.3zM50.2.3v22.9h8.9v-2.3h-5.7v-8.4H58v-2.3h-4.6V2.7h5.7V.3h-8.8zm20.2 15.1L63.9.3h-2.2v22.8h2.7V7.5L71 23.1h2V.3h-2.6zm5.6 7.8h8.8v-2.3h-5.7v-8.4h4.6v-2.3h-4.6V2.7h5.7V.3H76zM98.7 6.3c0-2.1-.5-3.7-1.6-4.6C96 .8 94.3.3 92 .3h-4.7V23h3.2V12.3H93L96 23h3.1l-3.2-11.4c1.9-.6 2.8-2.4 2.8-5.3zm-4 3c-.6.5-1.5.8-2.9.8V10h-1.2V2.5H92c.9 0 1.7.1 2.2.4s.9.7 1.1 1.2c.2.5.3 1.3.3 2.2 0 1.5-.3 2.5-.9 3zm12.9 4.8h2.9v1.6c0 1.9-.3 3.2-.7 4-.4.8-1.2 1.2-2.4 1.2s-2-.3-2.4-1.1c-.4-.8-.6-2.1-.6-3.8V7.5c0-1.1.1-2 .2-2.7.1-.7.3-1.2.8-1.6.5-.4 1.1-.6 2-.6.9 0 1.5.2 1.9.5.4.3.7.7.8 1.3.1.6.2 1.4.2 2.5v.7h3v-.8c0-2.3-.5-3.9-1.4-5-.9-1.1-2.4-1.6-4.5-1.6-1.6 0-2.8.3-3.7.9-.9.6-1.5 1.5-1.9 2.6-.3 1.1-.5 2.5-.5 4.3v7.6c0 2.6.5 4.5 1.4 5.8.9 1.3 2.4 2 4.3 2 2 0 3.4-1 4.1-2.9l.3 2.6h2V11.8h-5.8v2.3zM124.8.4l-3.4 11-3.5-11h-3l4.9 14.7h.1v8h3v-8L127.8.4z" fill="#111"/></svg>