<?xml version="1.0" encoding="utf-8"?><svg xmlns="http://www.w3.org/2000/svg" xmlns:xlink="http://www.w3.org/1999/xlink"><symbol viewBox="0 0 26.9 34.1" id="HTML-logo"><path d="M13.6 0h-.1L0 1.4v24.7l13.5 8 13.4-8V1.4L13.6 0zM25 12.1L13.5 5.3v-.1h-.1l-.1-.1v.1L1.9 12.1v-9l11.5-1.2L25 3.1v9zM13.4 6.8l11.5 6.7-4.5 2.6-7.1-4.2v1.4l5.9 3.5-.9.5-5-3v1.4l3.8 2.3-.8.5-3-1.8v1.4l1.9 1.1-1.8 1.1L2 13.6l11.4-6.8zM1.9 15.1l11.4 6.8v1l-7.9-4.7v1.4l8 4.8v1.1l-8-4.7v1.4l8 4.8 8.1-4.9v-5.2l3.4-2v10l-11.5 6.9L1.9 25v-9.9z"/></symbol><symbol viewBox="0 0 10 19" id="fb"><path d="M7.1 19H2v-8.8H0V5.8h1.9c-.1-2 .2-3.4 1.1-4.4C3.8.5 5 .1 6.5 0H10v4.2H7.2c-.1.2-.2.8-.2 1.6h3v4.4H7.1V19zm-4-1h2.8V9.1h2.9V6.8H5.9v-.5c0-1.4 0-2.6.7-3.1l.1-.1h2.1V1H6.5c-1.2.1-2 .4-2.6 1-.8.8-1 2.3-.8 4.2l.1.6H1.1v2.3h2V18z"/></symbol><symbol viewBox="0 0 55.5 60" id="gift"><path d="M52.3 12.2h-7c.5-.7.8-1.4 1.1-2.2.6-2 .4-4.1-.6-5.9-1-1.8-2.6-3.1-4.6-3.7-2-.6-4.1-.4-5.9.6-3.6 2-6.2 6.1-7.6 9-1.4-2.9-4-7.1-7.6-9-3.8-2-8.5-.6-10.5 3.1-1.4 2.7-1.2 5.8.5 8.1h-7c-1.7 0-3.1 1.4-3.1 3.1v9.4c0 1.7 1.4 3.1 3.1 3.1H4v26.1c0 3.3 2.7 6 6 6h35.5c3.3 0 6-2.7 6-6V27.8h.8c1.7 0 3.1-1.4 3.1-3.1v-9.4c.1-1.7-1.3-3.1-3.1-3.1zM36.5 3c1.3-.7 2.7-.8 4.1-.4 1.3.4 2.4 1.3 3.1 2.6.7 1.3.8 2.7.4 4.1-.4 1.2-1.1 2.2-2.2 2.9H29.4C30.5 9.6 33 5 36.5 3zM11.7 5.2C13.2 2.6 16.4 1.6 19 3c3.5 1.9 6 6.6 7.1 9.1H13.5c-2.3-1.4-3.1-4.5-1.8-6.9zm14.8 22.6v13.7H6.4V27.8h20.1zM6.4 53.9v-10h20.2v13.7H10c-2 0-3.6-1.7-3.6-3.7zm39.1 3.7H28.9V43.9h20.2v10c0 2-1.6 3.7-3.6 3.7zm3.6-16.1H28.9V27.8h20.2v13.7zm4-16.8c0 .4-.3.7-.7.7H3.2c-.4 0-.7-.3-.7-.7v-9.4c0-.4.3-.7.7-.7h49.2c.4 0 .7.3.7.7v9.4z"/></symbol><symbol viewBox="0 0 16 16" id="insta"><path d="M11.8 0H4.2C1.9 0 0 1.9 0 4.2v7.7C0 14.1 1.9 16 4.2 16h7.7c2.3 0 4.2-1.9 4.2-4.2V4.2C16 1.9 14.1 0 11.8 0zM15 11.8c0 1.7-1.4 3.1-3.1 3.1H4.2C2.4 15 1 13.6 1 11.8V4.2C1 2.4 2.4 1 4.2 1h7.7C13.6 1 15 2.4 15 4.2v7.6z"/><path d="M8 3.9C5.7 3.9 3.9 5.7 3.9 8s1.8 4.1 4.1 4.1 4.1-1.8 4.1-4.1S10.3 3.9 8 3.9zm0 7.2c-1.7 0-3.1-1.4-3.1-3.1 0-1.7 1.4-3.1 3.1-3.1 1.7 0 3.1 1.4 3.1 3.1 0 1.7-1.4 3.1-3.1 3.1z"/><circle cx="12.3" cy="3.7" r=".9"/></symbol><symbol viewBox="0 0 24.2 11" id="right-arrow"><path fill="#3F4242" d="M17.6 0l6.6 5.5-6.6 5.5V6.6H0V4.4h17.6z"/></symbol><symbol viewBox="0 0 22 12" id="vk"><path d="M21.7 9.9c-.4-.6-1.1-1.4-2.2-2.3-.4-.4-.9-.7-.9-.9 0-.2.5-.7.9-1.2.2-.2.4-.5.7-.9 1.8-2.2 1.9-3 1.7-3.5-.2-.4-.6-.7-1.3-.7h-3.4c-.7 0-1 .4-1.2.7-.1.2-.5 1.2-1.1 2.1-.9 1.4-1.4 1.8-1.5 1.9-.1-.2-.1-.7-.1-1V2.5c.1-1.2.1-2.2-1.1-2.5h-2.1c-1 0-1.8 0-2.3.3-.4.1-.9.6-.9 1.1l.5.5c.3 0 .6.1.6.2.1.1.2.6.2 1 .1.9 0 1.9-.1 2.2-.2-.1-.6-.4-1.5-2-.6-1-1.1-2-1.1-2 0-.1-.2-.4-.5-.6-.3-.2-.6-.2-.7-.2H1.2C1 .5.5.6.2.9c-.3.3-.2.7-.1 1.1.1.2 2.4 5.1 5.1 7.7 2.3 2.1 4.7 2.3 5.4 2.3H12c.1 0 .6-.1.9-.4.3-.3.3-.8.3-.9 0-.5.2-1.1.3-1.2.2 0 .7.6 1.1.9.4.4.8.9 1.3 1.2.7.4 1.2.5 1.5.5h3c.2 0 1.1-.1 1.4-.8.2-.4.3-.8-.1-1.4zm-1.2.9h-2.9c-.1 0-.5 0-1-.3-.4-.2-.7-.6-1.1-1-.6-.6-1.2-1.2-1.8-1.2h-.3c-1.1.3-1.2 2.1-1.2 2.3v.1l-.2.1h-1.4c-.4 0-2.7-.1-4.7-2-2.2-2.2-4.3-6.3-4.7-7.2h3c.1 0 .2 0 .2.1 0 0 0 .1.1.1C4.5 1.8 5 3 5.7 4c1.2 1.8 1.8 2.5 2.5 2.5.2 0 .3 0 .4-.1.8-.4.8-2 .7-3.3 0-.2 0-1.1-.4-1.7l-.2-.2c.4-.1.9-.1 1.4-.1h.5c.8 0 1.1 0 1.4.1.3.1.3.1.3 1.4v1.6c0 .7-.1 1.7.7 2.1.1.1.3.1.4.1.5 0 1.1-.3 2.5-2.4.5-1 1-2 1.1-2.3h3.9c-.1.2-.4.9-1.5 2.3-.3.3-.5.6-.7.8-.8 1-1.2 1.4-1.2 2.1 0 .6.5 1 1.4 1.7 1 .8 1.6 1.5 2 2.1 0 .1.1.1.1.1-.2-.1-.4 0-.5 0z"/></symbol></svg>