<svg xmlns="http://www.w3.org/2000/svg" viewBox="0 0 22 12"><path d="M21.7 9.9c-.4-.6-1.1-1.4-2.2-2.3-.4-.4-.9-.7-.9-.9 0-.2.5-.7.9-1.2.2-.2.4-.5.7-.9 1.8-2.2 1.9-3 1.7-3.5-.2-.4-.6-.7-1.3-.7h-3.4c-.7 0-1 .4-1.2.7-.1.2-.5 1.2-1.1 2.1-.9 1.4-1.4 1.8-1.5 1.9-.1-.2-.1-.7-.1-1V2.5c.1-1.2.1-2.2-1.1-2.5h-2.1c-1 0-1.8 0-2.3.3-.4.1-.9.6-.9 1.1l.5.5c.3 0 .6.1.6.2.1.1.2.6.2 1 .1.9 0 1.9-.1 2.2-.2-.1-.6-.4-1.5-2-.6-1-1.1-2-1.1-2 0-.1-.2-.4-.5-.6-.3-.2-.6-.2-.7-.2H1.2C1 .5.5.6.2.9c-.3.3-.2.7-.1 1.1.1.2 2.4 5.1 5.1 7.7 2.3 2.1 4.7 2.3 5.4 2.3H12c.1 0 .6-.1.9-.4.3-.3.3-.8.3-.9 0-.5.2-1.1.3-1.2.2 0 .7.6 1.1.9.4.4.8.9 1.3 1.2.7.4 1.2.5 1.5.5h3c.2 0 1.1-.1 1.4-.8.2-.4.3-.8-.1-1.4zm-1.2.9h-2.9c-.1 0-.5 0-1-.3-.4-.2-.7-.6-1.1-1-.6-.6-1.2-1.2-1.8-1.2h-.3c-1.1.3-1.2 2.1-1.2 2.3v.1l-.2.1h-1.4c-.4 0-2.7-.1-4.7-2-2.2-2.2-4.3-6.3-4.7-7.2h3c.1 0 .2 0 .2.1 0 0 0 .1.1.1C4.5 1.8 5 3 5.7 4c1.2 1.8 1.8 2.5 2.5 2.5.2 0 .3 0 .4-.1.8-.4.8-2 .7-3.3 0-.2 0-1.1-.4-1.7l-.2-.2c.4-.1.9-.1 1.4-.1h.5c.8 0 1.1 0 1.4.1.3.1.3.1.3 1.4v1.6c0 .7-.1 1.7.7 2.1.1.1.3.1.4.1.5 0 1.1-.3 2.5-2.4.5-1 1-2 1.1-2.3h3.9c-.1.2-.4.9-1.5 2.3-.3.3-.5.6-.7.8-.8 1-1.2 1.4-1.2 2.1 0 .6.5 1 1.4 1.7 1 .8 1.6 1.5 2 2.1 0 .1.1.1.1.1-.2-.1-.4 0-.5 0z"/></svg>